<?xml version="1.0" encoding="UTF-8"?>
<svg version="1.1" xmlns="http://www.w3.org/2000/svg" width="32" height="32" viewBox="200 280 250 300">
<!-- K - First path (main K structure) -->
<path d="M0 0 C1.39049412 -0.00643592 2.78098691 -0.01316486 4.17147827 -0.02017212 C7.07463727 -0.03209894 9.97767763 -0.03585731 12.88085938 -0.03466797 C16.59436151 -0.03446411 20.30710406 -0.06185393 24.0204258 -0.09621239 C26.88753743 -0.11847404 29.7544653 -0.12250589 32.62165451 -0.12144852 C33.99076347 -0.12380221 35.35987767 -0.13261283 36.72890091 -0.14811325 C38.64289689 -0.16777049 40.55711811 -0.15941332 42.47119141 -0.14990234 C43.55816315 -0.15275238 44.64513489 -0.15560242 45.76504517 -0.15853882 C49.43611569 0.4576607 51.0997285 1.724434 53.7109375 4.3359375 C54.5859375 7.4609375 54.5859375 7.4609375 53.7109375 11.3359375 C47.13361977 20.04653368 38.57805982 27.59825656 30.85693359 35.28759766 C29.47759497 36.66501331 28.09848665 38.04265963 26.71958923 39.42051697 C23.76806222 42.36890157 20.81499364 45.31573001 17.8606987 48.26134109 C13.18418959 52.92424481 8.51157137 57.59103469 3.83950806 62.25839233 C-6.07537952 72.16221643 -15.99450083 82.06179526 -25.9140625 91.9609375 C-36.63244068 102.65726306 -47.35007372 113.35432904 -58.06282938 124.05628622 C-62.70255051 128.69104119 -67.34469492 133.32335082 -71.98874307 137.95376992 C-74.88052475 140.83806748 -77.77021086 143.72445765 -80.65934563 146.61140633 C-81.99394644 147.94414286 -83.32940753 149.27601859 -84.66581535 150.60694313 C-93.42856874 159.33115265 -93.42856874 159.33115265 -101.69895744 168.51803017 C-104.819318 172.08542108 -108.20893194 175.3944165 -111.56347656 178.73974609 C-112.35947266 179.53749451 -113.15546875 180.33524292 -113.97558594 181.15716553 C-116.58279265 183.76874053 -119.19360059 186.3766799 -121.8046875 188.984375 C-123.62610237 190.80646402 -125.44736882 192.62870142 -127.26849365 194.45108032 C-131.07288096 198.2569375 -134.87901151 202.06103864 -138.68652344 205.86376953 C-143.08568842 210.25747426 -147.48121314 214.65479612 -151.87490296 219.05397546 C-156.11369038 223.29784599 -160.35528124 227.53890176 -164.59807587 231.77876663 C-166.39938553 233.5794086 -168.19995096 235.3807954 -169.99976349 237.18293381 C-172.50817655 239.69387863 -175.01975924 242.20160889 -177.53222656 244.70849609 C-178.27720398 245.45549774 -179.0221814 246.20249939 -179.78973389 246.97213745 C-180.47370239 247.65328613 -181.1576709 248.33443481 -181.86236572 249.03622437 C-182.45520481 249.62868643 -183.0480439 250.22114849 -183.65884781 250.83156395 C-185.94026377 252.9368706 -187.6861504 254.24550068 -190.7890625 254.7109375 C-193.2890625 254.3359375 -193.2890625 254.3359375 -194.9200592 252.73257446 C-196.73539486 249.55456858 -196.6767255 247.26854154 -196.69311523 243.61474609 C-196.69997849 242.94747498 -196.70684174 242.28020386 -196.71391296 241.5927124 C-196.73219037 239.38971568 -196.72833952 237.18743122 -196.72265625 234.984375 C-196.7272205 233.4446286 -196.73252679 231.90488424 -196.73854065 230.36514282 C-196.74747573 227.13543436 -196.74504763 223.90597303 -196.73510742 220.67626953 C-196.72366859 216.5607212 -196.7437478 212.44603741 -196.77302456 208.33060265 C-196.79148729 205.14757966 -196.79107335 201.96475949 -196.78538704 198.78169632 C-196.78523477 197.26601583 -196.79119992 195.75032075 -196.80367851 194.23469162 C-196.90900483 179.33313431 -193.48407996 169.73807687 -183.1580162 158.94482899 C-182.02714664 157.79931734 -180.89101851 156.65897964 -179.75042725 155.52314758 C-179.11940574 154.8868894 -178.48838423 154.25063121 -177.83824086 153.59509248 C-175.74288714 151.4848524 -173.64055982 149.3817088 -171.53808594 147.27856445 C-170.02596155 145.75881118 -168.51423804 144.23865893 -167.00288391 142.71813965 C-162.91055507 138.60393675 -158.81173771 134.4962596 -154.71100521 130.3904345 C-152.14665071 127.82242942 -149.58359753 125.25313267 -147.02097321 122.68340111 C-138.07356356 113.71152604 -129.12047346 104.7453603 -120.16259766 95.78393555 C-111.82332097 87.4410212 -103.49727717 79.08505766 -95.17713332 70.72306663 C-88.02231506 63.53353146 -80.85788237 56.35367161 -73.68603349 49.18112534 C-69.40749339 44.90179323 -65.13300404 40.61859788 -60.86833954 36.32543373 C-56.8574194 32.28830807 -52.83465069 28.26337373 -48.80260277 24.2473526 C-47.32854103 22.77510304 -45.85870907 21.29860385 -44.39355659 19.81748772 C-30.27392352 5.5534882 -30.27392352 5.5534882 -21.2890625 2.3359375 C-20.22252441 1.90974121 -19.15598633 1.48354492 -18.05712891 1.04443359 C-12.06841205 -0.08160349 -6.07707277 0.00662044 0 0 Z " fill="#0E1E2D" transform="translate(393.2890625,304.6640625)"/>
<!-- K - Second path (additional structure) -->
<path d="M0 0 C6.20949025 4.60212976 11.5958052 10.44745507 17.04638672 15.90112305 C17.91241013 16.76378784 18.77843353 17.62645264 19.67070007 18.51525879 C22.02140429 20.85814795 24.36985827 23.20324308 26.7169776 25.54972053 C28.18587365 27.01790189 29.65548109 28.48536735 31.12533951 29.95258522 C36.25892939 35.07695894 41.38996603 40.203873 46.51855469 45.33325195 C51.2924307 50.10773082 56.07188099 54.87657931 60.85392368 59.64287728 C64.97060294 63.74648641 69.08342317 67.85393617 73.19325268 71.96440536 C75.64339646 74.41480387 78.09506194 76.86363049 80.55062485 79.30859947 C83.28267388 82.02917853 86.00668282 84.75771999 88.72998047 87.48706055 C89.54243729 88.29389786 90.3548941 89.10073517 91.19197083 89.93202209 C92.30204247 91.04838547 92.30204247 91.04838547 93.43453979 92.18730164 C94.07862226 92.83083934 94.72270473 93.47437704 95.38630486 94.13741589 C98.05330954 97.21576719 98.94222048 99.3644253 99.3125 103.4375 C98.96696649 107.37658205 98.62113233 109.05122613 96 112 C89.07925356 115.36021255 82.77827765 115.45271372 75.171875 115.43359375 C73.33378265 115.44145653 73.33378265 115.44145653 71.45855713 115.44947815 C68.873258 115.45588249 66.28792968 115.45458203 63.70263672 115.44604492 C59.77648118 115.43755725 55.85179253 115.46628622 51.92578125 115.49804688 C49.40364627 115.4996598 46.88150873 115.49907961 44.359375 115.49609375 C42.61971466 115.51294472 42.61971466 115.51294472 40.84490967 115.53013611 C21.81939263 115.36998837 10.56894984 105.98322667 -2.15234375 93.0625 C-3.47700431 91.70876551 -4.80122009 90.35459566 -6.125 89 C-8.74877499 86.32954317 -11.376915 83.66343923 -14.0078125 81 C-14.63305817 80.36620926 -15.25830383 79.73241852 -15.90249634 79.079422 C-19.54690059 75.40422728 -23.26122854 71.888079 -27.21533203 68.54443359 C-30.76503558 65.47255608 -34.05557449 62.1288116 -37.375 58.8125 C-38.08527344 58.11447266 -38.79554688 57.41644531 -39.52734375 56.69726562 C-40.20667969 56.01986328 -40.88601563 55.34246094 -41.5859375 54.64453125 C-42.1948584 54.03971924 -42.8037793 53.43490723 -43.43115234 52.81176758 C-46.52197 49.2423686 -47.65262807 45.90151956 -47.48974609 41.10961914 C-45.5419902 32.71951014 -33.89179502 24.81508467 -27.8125 18.8125 C-25.67021157 16.69697823 -23.5313888 14.57803696 -21.39453125 12.45703125 C-20.91216507 11.98296341 -20.42979889 11.50889557 -19.93281555 11.02046204 C-17.05759156 8.16599299 -14.51693245 5.16970974 -12 2 C-7.83303728 -1.37861842 -5.11170402 -1.55950292 0 0 Z " fill="#0E1E2D" transform="translate(352,444)"/>
</svg>
