<?xml version="1.0" encoding="UTF-8"?>
<svg version="1.1" xmlns="http://www.w3.org/2000/svg" width="889" height="862">
<path d="M0 0 C293.37 0 586.74 0 889 0 C889 284.46 889 568.92 889 862 C595.63 862 302.26 862 0 862 C0 577.54 0 293.08 0 0 Z " fill="#F3F4F6" transform="translate(0,0)"/>
<path d="M0 0 C1.39049412 -0.00643592 2.78098691 -0.01316486 4.17147827 -0.02017212 C7.07463727 -0.03209894 9.97767763 -0.03585731 12.88085938 -0.03466797 C16.59436151 -0.03446411 20.30710406 -0.06185393 24.0204258 -0.09621239 C26.88753743 -0.11847404 29.7544653 -0.12250589 32.62165451 -0.12144852 C33.99076347 -0.12380221 35.35987767 -0.13261283 36.72890091 -0.14811325 C38.64289689 -0.16777049 40.55711811 -0.15941332 42.47119141 -0.14990234 C43.55816315 -0.15275238 44.64513489 -0.15560242 45.76504517 -0.15853882 C49.43611569 0.4576607 51.0997285 1.724434 53.7109375 4.3359375 C54.5859375 7.4609375 54.5859375 7.4609375 53.7109375 11.3359375 C47.13361977 20.04653368 38.57805982 27.59825656 30.85693359 35.28759766 C29.47759497 36.66501331 28.09848665 38.04265963 26.71958923 39.42051697 C23.76806222 42.36890157 20.81499364 45.31573001 17.8606987 48.26134109 C13.18418959 52.92424481 8.51157137 57.59103469 3.83950806 62.25839233 C-6.07537952 72.16221643 -15.99450083 82.06179526 -25.9140625 91.9609375 C-36.63244068 102.65726306 -47.35007372 113.35432904 -58.06282938 124.05628622 C-62.70255051 128.69104119 -67.34469492 133.32335082 -71.98874307 137.95376992 C-74.88052475 140.83806748 -77.77021086 143.72445765 -80.65934563 146.61140633 C-81.99394644 147.94414286 -83.32940753 149.27601859 -84.66581535 150.60694313 C-93.42856874 159.33115265 -93.42856874 159.33115265 -101.69895744 168.51803017 C-104.819318 172.08542108 -108.20893194 175.3944165 -111.56347656 178.73974609 C-112.35947266 179.53749451 -113.15546875 180.33524292 -113.97558594 181.15716553 C-116.58279265 183.76874053 -119.19360059 186.3766799 -121.8046875 188.984375 C-123.62610237 190.80646402 -125.44736882 192.62870142 -127.26849365 194.45108032 C-131.07288096 198.2569375 -134.87901151 202.06103864 -138.68652344 205.86376953 C-143.08568842 210.25747426 -147.48121314 214.65479612 -151.87490296 219.05397546 C-156.11369038 223.29784599 -160.35528124 227.53890176 -164.59807587 231.77876663 C-166.39938553 233.5794086 -168.19995096 235.3807954 -169.99976349 237.18293381 C-172.50817655 239.69387863 -175.01975924 242.20160889 -177.53222656 244.70849609 C-178.27720398 245.45549774 -179.0221814 246.20249939 -179.78973389 246.97213745 C-180.47370239 247.65328613 -181.1576709 248.33443481 -181.86236572 249.03622437 C-182.45520481 249.62868643 -183.0480439 250.22114849 -183.65884781 250.83156395 C-185.94026377 252.9368706 -187.6861504 254.24550068 -190.7890625 254.7109375 C-193.2890625 254.3359375 -193.2890625 254.3359375 -194.9200592 252.73257446 C-196.73539486 249.55456858 -196.6767255 247.26854154 -196.69311523 243.61474609 C-196.69997849 242.94747498 -196.70684174 242.28020386 -196.71391296 241.5927124 C-196.73219037 239.38971568 -196.72833952 237.18743122 -196.72265625 234.984375 C-196.7272205 233.4446286 -196.73252679 231.90488424 -196.73854065 230.36514282 C-196.74747573 227.13543436 -196.74504763 223.90597303 -196.73510742 220.67626953 C-196.72366859 216.5607212 -196.7437478 212.44603741 -196.77302456 208.33060265 C-196.79148729 205.14757966 -196.79107335 201.96475949 -196.78538704 198.78169632 C-196.78523477 197.26601583 -196.79119992 195.75032075 -196.80367851 194.23469162 C-196.90900483 179.33313431 -193.48407996 169.73807687 -183.1580162 158.94482899 C-182.02714664 157.79931734 -180.89101851 156.65897964 -179.75042725 155.52314758 C-179.11940574 154.8868894 -178.48838423 154.25063121 -177.83824086 153.59509248 C-175.74288714 151.4848524 -173.64055982 149.3817088 -171.53808594 147.27856445 C-170.02596155 145.75881118 -168.51423804 144.23865893 -167.00288391 142.71813965 C-162.91055507 138.60393675 -158.81173771 134.4962596 -154.71100521 130.3904345 C-152.14665071 127.82242942 -149.58359753 125.25313267 -147.02097321 122.68340111 C-138.07356356 113.71152604 -129.12047346 104.7453603 -120.16259766 95.78393555 C-111.82332097 87.4410212 -103.49727717 79.08505766 -95.17713332 70.72306663 C-88.02231506 63.53353146 -80.85788237 56.35367161 -73.68603349 49.18112534 C-69.40749339 44.90179323 -65.13300404 40.61859788 -60.86833954 36.32543373 C-56.8574194 32.28830807 -52.83465069 28.26337373 -48.80260277 24.2473526 C-47.32854103 22.77510304 -45.85870907 21.29860385 -44.39355659 19.81748772 C-30.27392352 5.5534882 -30.27392352 5.5534882 -21.2890625 2.3359375 C-20.22252441 1.90974121 -19.15598633 1.48354492 -18.05712891 1.04443359 C-12.06841205 -0.08160349 -6.07707277 0.00662044 0 0 Z " fill="#0E1E2D" transform="translate(393.2890625,304.6640625)"/>
<path d="M0 0 C0 0.66 0 1.32 0 2 C0.721875 2.2475 1.44375 2.495 2.1875 2.75 C10.05279181 6.24568525 15.71625071 12.89810903 19.109375 20.6640625 C23.89676673 33.22046712 23.17609489 46.44570374 23.203125 59.68359375 C23.20736607 61.08742152 23.20736607 61.08742152 23.21169281 62.51960945 C23.22659711 67.45733033 23.23588598 72.39502256 23.24023438 77.33276367 C23.24575407 82.43285906 23.26987971 87.53269218 23.29820633 92.63270473 C23.31678843 96.56084483 23.32203559 100.48892056 23.32357025 104.41710091 C23.32659954 106.2986198 23.33463736 108.18013748 23.34775543 110.06161308 C23.36474809 112.68247867 23.36295431 115.30268618 23.35644531 117.92358398 C23.3656601 118.70125122 23.37487488 119.47891846 23.3843689 120.28015137 C23.34358238 125.50403405 23.34358238 125.50403405 21.62799072 127.98051453 C19.30290759 129.4365354 17.51125187 129.38849128 14.78125 129.3984375 C13.76675781 129.40230469 12.75226563 129.40617188 11.70703125 129.41015625 C10.64871094 129.39855469 9.59039063 129.38695312 8.5 129.375 C7.44167969 129.38660156 6.38335938 129.39820313 5.29296875 129.41015625 C3.77123047 129.40435547 3.77123047 129.40435547 2.21875 129.3984375 C0.8255957 129.39336182 0.8255957 129.39336182 -0.59570312 129.38818359 C-3 129 -3 129 -4.80786133 127.6574707 C-6.6424622 125.10676308 -6.28698779 122.89662134 -6.1875 119.8125 C-6.14689453 118.18248047 -6.14689453 118.18248047 -6.10546875 116.51953125 C-6.07066406 115.68808594 -6.03585937 114.85664062 -6 114 C-9.30171945 115.89820108 -12.2126342 117.92772684 -15.125 120.375 C-26.83273479 129.54347443 -40.37695058 132.13560121 -55 131 C-67.16156956 128.95063342 -77.39575577 124.81619331 -85.46875 115.26171875 C-91.63992572 106.47531917 -94.29382274 94.59017876 -93 84 C-91.30139379 74.58045648 -86.51459286 67.36375038 -79.09375 61.375 C-59.31673987 48.38711275 -30.68520228 49.55965467 -8 48 C-7.95079295 45.93123017 -7.91578509 43.86211957 -7.88671875 41.79296875 C-7.855177 40.06469849 -7.855177 40.06469849 -7.82299805 38.30151367 C-8.07787726 33.54740118 -9.39077046 30.95111902 -12 27 C-13.485 26.01 -13.485 26.01 -15 25 C-15 24.34 -15 23.68 -15 23 C-21.29519523 20.52880402 -26.81319706 19.50228724 -33.5625 19.5625 C-34.36107422 19.54251953 -35.15964844 19.52253906 -35.98242188 19.50195312 C-43.18212453 19.50782085 -48.31908911 21.68466787 -53.75 26.375 C-56.15355403 28.89237012 -56.15355403 28.89237012 -57.25 32.140625 C-60.63887487 35.66428467 -61.75153237 35.45103091 -66.515625 35.5859375 C-69.09440031 35.54605953 -71.67283697 35.47451422 -74.25 35.375 C-75.56742187 35.34792969 -76.88484375 35.32085937 -78.2421875 35.29296875 C-81.49643587 35.22222422 -84.74739748 35.12354061 -88 35 C-88.33540251 24.9379247 -85.37939759 17.33414185 -78.75 9.625 C-59.01958374 -10.69146823 -24.68946771 -11.95043031 0 0 Z " fill="#10202F" transform="translate(571,426)"/>
<path d="M0 0 C6.20949025 4.60212976 11.5958052 10.44745507 17.04638672 15.90112305 C17.91241013 16.76378784 18.77843353 17.62645264 19.67070007 18.51525879 C22.02140429 20.85814795 24.36985827 23.20324308 26.7169776 25.54972053 C28.18587365 27.01790189 29.65548109 28.48536735 31.12533951 29.95258522 C36.25892939 35.07695894 41.38996603 40.203873 46.51855469 45.33325195 C51.2924307 50.10773082 56.07188099 54.87657931 60.85392368 59.64287728 C64.97060294 63.74648641 69.08342317 67.85393617 73.19325268 71.96440536 C75.64339646 74.41480387 78.09506194 76.86363049 80.55062485 79.30859947 C83.28267388 82.02917853 86.00668282 84.75771999 88.72998047 87.48706055 C89.54243729 88.29389786 90.3548941 89.10073517 91.19197083 89.93202209 C92.30204247 91.04838547 92.30204247 91.04838547 93.43453979 92.18730164 C94.07862226 92.83083934 94.72270473 93.47437704 95.38630486 94.13741589 C98.05330954 97.21576719 98.94222048 99.3644253 99.3125 103.4375 C98.96696649 107.37658205 98.62113233 109.05122613 96 112 C89.07925356 115.36021255 82.77827765 115.45271372 75.171875 115.43359375 C73.33378265 115.44145653 73.33378265 115.44145653 71.45855713 115.44947815 C68.873258 115.45588249 66.28792968 115.45458203 63.70263672 115.44604492 C59.77648118 115.43755725 55.85179253 115.46628622 51.92578125 115.49804688 C49.40364627 115.4996598 46.88150873 115.49907961 44.359375 115.49609375 C42.61971466 115.51294472 42.61971466 115.51294472 40.84490967 115.53013611 C21.81939263 115.36998837 10.56894984 105.98322667 -2.15234375 93.0625 C-3.47700431 91.70876551 -4.80122009 90.35459566 -6.125 89 C-8.74877499 86.32954317 -11.376915 83.66343923 -14.0078125 81 C-14.63305817 80.36620926 -15.25830383 79.73241852 -15.90249634 79.079422 C-19.54690059 75.40422728 -23.26122854 71.888079 -27.21533203 68.54443359 C-30.76503558 65.47255608 -34.05557449 62.1288116 -37.375 58.8125 C-38.08527344 58.11447266 -38.79554688 57.41644531 -39.52734375 56.69726562 C-40.20667969 56.01986328 -40.88601563 55.34246094 -41.5859375 54.64453125 C-42.1948584 54.03971924 -42.8037793 53.43490723 -43.43115234 52.81176758 C-46.52197 49.2423686 -47.65262807 45.90151956 -47.48974609 41.10961914 C-45.5419902 32.71951014 -33.89179502 24.81508467 -27.8125 18.8125 C-25.67021157 16.69697823 -23.5313888 14.57803696 -21.39453125 12.45703125 C-20.91216507 11.98296341 -20.42979889 11.50889557 -19.93281555 11.02046204 C-17.05759156 8.16599299 -14.51693245 5.16970974 -12 2 C-7.83303728 -1.37861842 -5.11170402 -1.55950292 0 0 Z " fill="#0E1E2D" transform="translate(352,444)"/>
<path d="M0 0 C0.68666245 -0.00700928 1.37332489 -0.01401855 2.08079529 -0.02124023 C4.34529338 -0.038812 6.6085366 -0.02720182 8.87304688 -0.01367188 C10.4495874 -0.01636706 12.0261263 -0.0202497 13.60266113 -0.02526855 C16.90470221 -0.03116244 20.2063101 -0.02260466 23.50830078 -0.00390625 C27.73880748 0.01888381 31.96829915 0.00576006 36.19876862 -0.01819611 C39.4536299 -0.03265739 42.70825094 -0.02804671 45.96311951 -0.01768494 C47.52282329 -0.01501853 49.08254895 -0.01828442 50.64222717 -0.02760315 C52.8232695 -0.0377749 55.00267334 -0.02226229 57.18359375 0 C58.42395386 0.00318237 59.66431396 0.00636475 60.94226074 0.00964355 C64.09179688 0.51757812 64.09179688 0.51757812 66.49220276 2.18623352 C68.49953099 5.11183433 68.59293576 6.80334306 68.59350586 10.33666992 C68.60288681 11.50856369 68.61226776 12.68045746 68.62193298 13.88786316 C68.61069901 15.15141129 68.59946503 16.41495941 68.58789062 17.71679688 C68.58934586 19.02155472 68.59080109 20.32631256 68.59230042 21.67060852 C68.59368424 24.4338497 68.58113891 27.19657179 68.55834961 29.9597168 C68.53010354 33.47893346 68.53266402 36.99727897 68.54543972 40.51655865 C68.55412973 43.89589315 68.53891742 47.27497691 68.52539062 50.65429688 C68.52832626 51.90772385 68.5312619 53.16115082 68.5342865 54.45256042 C68.44587985 62.73032147 68.01369627 69.93964718 62.63867188 76.52148438 C61.71570313 77.36582031 60.79273438 78.21015625 59.84179688 79.08007812 C56.74601245 81.95286113 53.82949267 84.77174971 51.09985352 87.99414062 C46.31301539 93.49823415 41.13916595 98.61465573 35.97851562 103.76367188 C34.91699395 104.82586857 33.85562063 105.88821356 32.79438782 106.95069885 C30.58646724 109.16008324 28.37677433 111.36767489 26.16577148 113.57397461 C23.32992245 116.40408492 20.4986436 119.23871848 17.668643 122.07467556 C15.48549028 124.26143385 13.29997149 126.44581484 11.11371803 128.62947273 C10.06796666 129.67455699 9.02295771 130.72038468 7.97870445 131.76696587 C6.52620923 133.22199205 5.07056262 134.67378922 3.61401367 136.12475586 C2.78685349 136.95112045 1.9596933 137.77748505 1.10746765 138.62889099 C-1.44556591 141.02108802 -2.39218896 141.47457694 -5.90820312 141.76757812 C-6.89820313 141.68507813 -7.88820312 141.60257813 -8.90820312 141.51757812 C-11.15201249 138.15186407 -11.16216568 137.03382324 -11.17562866 133.09657288 C-11.18415863 131.97073288 -11.1926886 130.84489288 -11.20147705 129.68493652 C-11.20057068 128.44900757 -11.19966431 127.21307861 -11.19873047 125.93969727 C-11.20544769 124.6387059 -11.21216492 123.33771454 -11.21908569 121.99729919 C-11.23676479 118.42705543 -11.24144184 114.8569075 -11.24271727 111.28662419 C-11.24461583 108.30693181 -11.25197276 105.32726177 -11.25906146 102.34757799 C-11.27534987 95.31837707 -11.28022996 88.28922739 -11.27880859 81.26000977 C-11.27760666 74.00663515 -11.29871746 66.75355786 -11.33029592 59.50025851 C-11.35643684 53.27427044 -11.36717683 47.04837963 -11.36589777 40.82233709 C-11.36538754 37.10313718 -11.37110439 33.38420152 -11.39225388 29.66505623 C-11.41519218 25.51811475 -11.40612887 21.37184074 -11.39404297 17.22485352 C-11.40528198 15.99094879 -11.416521 14.75704407 -11.42810059 13.48574829 C-11.41971161 12.35708847 -11.41132263 11.22842865 -11.40267944 10.06556702 C-11.40376898 9.08498857 -11.40485851 8.10441011 -11.40598106 7.09411716 C-10.17027737 0.69801446 -5.78607056 0.01484523 0 0 Z " fill="#0D1E2C" transform="translate(207.908203125,304.482421875)"/>
<path d="M0 0 C9.24 0 18.48 0 28 0 C29.26658263 2.53316526 29.12869243 4.28790413 29.13371277 7.12438965 C29.13797775 8.20967453 29.14224274 9.29495941 29.14663696 10.41313171 C29.14618378 11.60904434 29.14573059 12.80495697 29.14526367 14.03710938 C29.14862228 15.29239944 29.1519809 16.54768951 29.15544128 17.84101868 C29.16429 21.28927652 29.16661973 24.73750957 29.16725707 28.18577766 C29.16820536 31.06121697 29.17188265 33.93665046 29.17542917 36.81208754 C29.18357665 43.59331525 29.18601309 50.37452968 29.18530273 57.15576172 C29.1847015 64.15969485 29.19526169 71.16355107 29.2110464 78.16746473 C29.22410339 84.17428435 29.22948743 90.18107876 29.22884732 96.18791246 C29.22859184 99.77843458 29.23147075 103.36888834 29.24202538 106.95939636 C29.25346601 110.96061502 29.24897089 114.96166022 29.24291992 118.96289062 C29.24853943 120.15880325 29.25415894 121.35471588 29.25994873 122.58686829 C29.25575424 123.67215317 29.25155975 124.75743805 29.24723816 125.87561035 C29.24778293 126.82245949 29.24832769 127.76930862 29.24888897 128.74485016 C29 131 29 131 27 133 C24.32617188 133.25878906 24.32617188 133.25878906 20.96875 133.265625 C19.76605469 133.26820313 18.56335938 133.27078125 17.32421875 133.2734375 C15.43123047 133.26183594 15.43123047 133.26183594 13.5 133.25 C12.23800781 133.25773438 10.97601562 133.26546875 9.67578125 133.2734375 C8.47308594 133.27085937 7.27039063 133.26828125 6.03125 133.265625 C4.92330078 133.26336914 3.81535156 133.26111328 2.67382812 133.25878906 C0 133 0 133 -2 131 C-2.25168228 128.78167152 -2.25168228 128.78167152 -2.25396729 125.96499634 C-2.25960693 124.89943008 -2.26524658 123.83386383 -2.27105713 122.73600769 C-2.26700867 121.56193863 -2.26296021 120.38786957 -2.25878906 119.17822266 C-2.2622937 117.94565231 -2.26579834 116.71308197 -2.26940918 115.44316101 C-2.27671918 112.0566696 -2.27498306 108.67042159 -2.26865101 105.28394365 C-2.26359563 101.74238279 -2.26828138 98.2008325 -2.27142334 94.65927124 C-2.27506529 88.70902637 -2.2702589 82.75883109 -2.26074219 76.80859375 C-2.24986716 69.92966022 -2.25337532 63.05084533 -2.264395 56.1719147 C-2.2734733 50.26866568 -2.2747502 44.36545236 -2.26951766 38.46219862 C-2.26639965 34.93533661 -2.26598375 31.40853033 -2.27259064 27.88167191 C-2.27944441 23.94792326 -2.26994238 20.01430721 -2.25878906 16.08056641 C-2.26283752 14.91054581 -2.26688599 13.74052521 -2.27105713 12.53504944 C-2.26541748 11.46384354 -2.25977783 10.39263763 -2.25396729 9.28897095 C-2.25321323 8.35871408 -2.25245918 7.42845722 -2.25168228 6.47001076 C-2 4 -2 4 0 0 Z " fill="#0D1E2C" transform="translate(628,422)"/>
<path d="M0 0 C0.81114258 -0.00475342 1.62228516 -0.00950684 2.45800781 -0.0144043 C8.31491157 0.00241157 8.31491157 0.00241157 9.4375 1.125 C9.54023711 12.26170324 6.47502268 22.08298192 -1.2734375 30.1796875 C-10.53895932 38.0537999 -20.85998308 39.01099497 -32.5625 38.125 C-38.83700135 36.40442139 -42.36622463 32.86828684 -45.6328125 27.30078125 C-47.45079846 23.04608302 -47.283638 18.63689884 -46.5625 14.125 C-44.26316205 9.58360298 -40.61718764 6.47224922 -35.80078125 4.7421875 C-23.83844464 1.44367235 -12.34792748 0.06147445 0 0 Z " fill="#EDEEF0" transform="translate(554.5625,495.875)"/>
<path d="M0 0 C5.28584541 2.36709586 8.95686516 6.09341781 11.55859375 11.296875 C12.66245649 17.90607851 11.07699814 21.97548699 7.26171875 27.3515625 C4.46589383 30.54495886 1.80579705 32.70698565 -2.44140625 33.296875 C-9.09296531 33.62400086 -14.70800592 33.40904798 -20.19140625 29.171875 C-23.57902672 24.84324884 -25.15018494 20.67518237 -25.81640625 15.234375 C-25.02006247 8.99634872 -22.66140195 4.31040132 -17.7265625 0.40234375 C-12.25977287 -2.24227414 -5.71436634 -1.64573751 0 0 Z " fill="#12212F" transform="translate(648.44140625,369.703125)"/>
<path d="M0 0 C9.24 0 18.48 0 28 0 C29.26949857 2.53899715 29.12301472 4.29483421 29.12025452 7.1378479 C29.12162918 8.2260231 29.12300385 9.3141983 29.12442017 10.43534851 C29.12082489 11.63440323 29.11722961 12.83345795 29.11352539 14.06884766 C29.11367142 15.32735031 29.11381744 16.58585297 29.1139679 17.88249207 C29.11425548 21.33888916 29.10836508 24.79525174 29.10139394 28.2516408 C29.09515387 31.8617997 29.09455608 35.47195934 29.09336853 39.0821228 C29.09025715 45.92088714 29.08204634 52.75963554 29.07201904 59.59839284 C29.06085193 67.38305311 29.05534594 75.16771414 29.05032361 82.95238042 C29.03986358 98.96826295 29.02226785 114.98412944 29 131 C28.67 131 28.34 131 28 131 C27.03998037 104.05828914 26.71234479 77.11986421 26.46777344 50.16345215 C26.41653084 44.59722531 26.3613947 39.03103696 26.30664062 33.46484375 C26.20073641 22.64326242 26.09895696 11.82164694 26 1 C25.01 1 24.02 1 23 1 C23 1.66 23 2.32 23 3 C15.41 3 7.82 3 0 3 C0 45.24 0 87.48 0 131 C-0.66 131 -1.32 131 -2 131 C-2.04670923 114.51034867 -2.08198355 98.02071879 -2.10362434 81.5310173 C-2.11393936 73.87465962 -2.128004 66.21834303 -2.15087891 58.56201172 C-2.17080588 51.8891873 -2.1837148 45.21639263 -2.18817699 38.54353929 C-2.19078555 35.00992286 -2.19692145 31.47639158 -2.21146011 27.94280243 C-2.22755395 23.99928688 -2.22798013 20.05585482 -2.22705078 16.11230469 C-2.23424133 14.939142 -2.24143188 13.76597931 -2.24884033 12.55726624 C-2.246091 11.48317001 -2.24334167 10.40907379 -2.24050903 9.3024292 C-2.24235262 8.3695747 -2.24419621 7.4367202 -2.24609566 6.47559738 C-2 4 -2 4 0 0 Z " fill="#303944" transform="translate(628,422)"/>
<path d="M0 0 C0.99 0 1.98 0 3 0 C3 5.28 3 10.56 3 16 C-4 17 -4 17 -5.8125 15.6875 C-6.204375 15.130625 -6.59625 14.57375 -7 14 C-7.66 13.34 -8.32 12.68 -9 12 C-9.33 13.32 -9.66 14.64 -10 16 C-11.98 16.33 -13.96 16.66 -16 17 C-20.01759324 12.73891626 -20.01759324 12.73891626 -19.9375 9.375 C-18.90874024 6.76880861 -18.39126373 5.48423266 -16 4 C-12.8125 4.3125 -12.8125 4.3125 -10 5 C-9.67 6.32 -9.34 7.64 -9 9 C-8.34 9 -7.68 9 -7 9 C-6.67 7.68 -6.34 6.36 -6 5 C-4.35 4.67 -2.7 4.34 -1 4 C-0.67 2.68 -0.34 1.36 0 0 Z " fill="#DADBDE" transform="translate(161,831)"/>
<path d="M0 0 C1.1446875 0.3403125 1.1446875 0.3403125 2.3125 0.6875 C2.6425 1.6775 2.9725 2.6675 3.3125 3.6875 C1.3325 3.6875 -0.6475 3.6875 -2.6875 3.6875 C-2.6875 5.3375 -2.6875 6.9875 -2.6875 8.6875 C-0.7075 8.3575 1.2725 8.0275 3.3125 7.6875 C3.415625 6.924375 3.51875 6.16125 3.625 5.375 C4.36907891 2.46632791 4.79267068 1.30739028 7.3125 -0.3125 C10.48261158 -0.23324721 11.86344611 0.26838304 14.1875 2.4375 C15.3125 4.6875 15.3125 4.6875 15.25 7.25 C14.07126621 10.31470785 13.32549383 11.33958171 10.3125 12.6875 C7.97130445 12.04899212 5.63798007 11.38106423 3.3125 10.6875 C0.44819881 11.42966399 0.44819881 11.42966399 -1.6875 12.6875 C-4.25 10.5 -4.25 10.5 -6.6875 7.6875 C-6.6875 4.70105237 -6.07879646 3.27444469 -4.4375 0.8125 C-2.6875 -0.3125 -2.6875 -0.3125 0 0 Z " fill="#D7D8DB" transform="translate(176.6875,835.3125)"/>
<path d="M0 0 C3.75 0.25 3.75 0.25 7 1 C7.05384521 3.29141286 7.09272087 5.58318188 7.125 7.875 C7.14820312 9.15117188 7.17140625 10.42734375 7.1953125 11.7421875 C7 15 7 15 5 17 C2 17.3125 2 17.3125 -1 17 C-1.66 16.01 -2.32 15.02 -3 14 C-1 14 1 14 3 14 C3.33 13.34 3.66 12.68 4 12 C3.236875 12.0825 2.47375 12.165 1.6875 12.25 C-1 12 -1 12 -2.8125 10.125 C-4 8 -4 8 -4 6 C-6.64 6 -9.28 6 -12 6 C-12 5.34 -12 4.68 -12 4 C-10.7625 4.0825 -9.525 4.165 -8.25 4.25 C-6.04846298 4.32168437 -6.04846298 4.32168437 -4 4 C-3.319375 3.319375 -2.63875 2.63875 -1.9375 1.9375 C-1.298125 1.298125 -0.65875 0.65875 0 0 Z " fill="#D4D4D7" transform="translate(71,835)"/>
<path d="M0 0 C0.825 -0.20625 1.65 -0.4125 2.5 -0.625 C5 -1 5 -1 6.64453125 0.18359375 C8.3805513 2.50996068 8.31220448 3.81929701 8.1875 6.6875 C8.16042969 7.49574219 8.13335937 8.30398438 8.10546875 9.13671875 C8.05326172 10.05904297 8.05326172 10.05904297 8 11 C1.56512141 12.33554084 1.56512141 12.33554084 -1 10.8125 C-2 9 -2 9 -1.6875 6.8125 C-1.460625 6.214375 -1.23375 5.61625 -1 5 C0.98 4.67 2.96 4.34 5 4 C5 3.34 5 2.68 5 2 C0.545 2.495 0.545 2.495 -4 3 C-4.33 5.64 -4.66 8.28 -5 11 C-5.99 11 -6.98 11 -8 11 C-8 7.37 -8 3.74 -8 0 C-3 -1 -3 -1 0 0 Z " fill="#D6D6D9" transform="translate(124,836)"/>
<path d="M0 0 C0.66 0 1.32 0 2 0 C3.01866229 1.65532623 4.01810813 3.32260138 5 5 C5.66 5.33 6.32 5.66 7 6 C5.97208168 9.08375495 5.29893164 9.87790925 3 12 C2.443125 12.556875 1.88625 13.11375 1.3125 13.6875 C0.879375 14.120625 0.44625 14.55375 0 15 C-0.33 13.68 -0.66 12.36 -1 11 C-1.99 11 -2.98 11 -4 11 C-4.66 12.32 -5.32 13.64 -6 15 C-10 10.25 -10 10.25 -10 8 C-9.34 7.67 -8.68 7.34 -8 7 C-7.67 6.01 -7.34 5.02 -7 4 C-5.35 4.33 -3.7 4.66 -2 5 C-1.34 3.35 -0.68 1.7 0 0 Z " fill="#D5D6D8" transform="translate(24,832)"/>
<path d="M0 0 C0.99 0.33 1.98 0.66 3 1 C4.04409043 3.32640994 4.89690418 5.52749642 5.6875 7.9375 C5.91244141 8.58396484 6.13738281 9.23042969 6.36914062 9.89648438 C8 14.67009403 8 14.67009403 8 17 C7.01 17 6.02 17 5 17 C4.67 16.34 4.34 15.68 4 15 C2.02 15 0.04 15 -2 15 C-2.33 15.66 -2.66 16.32 -3 17 C-3.99 17 -4.98 17 -6 17 C-4.33846988 11.14340094 -2.52958084 5.5409866 0 0 Z " fill="#D2D3D6" transform="translate(45,830)"/>
<path d="M0 0 C1.3921875 0.3403125 1.3921875 0.3403125 2.8125 0.6875 C4.16931803 3.92878751 4.93476153 5.99977887 4.3125 9.5 C2.8125 11.6875 2.8125 11.6875 -0.3125 12.5 C-1.735625 12.5928125 -1.735625 12.5928125 -3.1875 12.6875 C-7.20509324 8.42641626 -7.20509324 8.42641626 -7.125 5.0625 C-5.48842155 0.91650125 -4.65474566 -0.45634761 0 0 Z " fill="#E3E4E6" transform="translate(110.1875,835.3125)"/>
<path d="M0 0 C1.3921875 0.3403125 1.3921875 0.3403125 2.8125 0.6875 C4.16931803 3.92878751 4.93476153 5.99977887 4.3125 9.5 C2.8125 11.6875 2.8125 11.6875 -0.3125 12.5 C-1.735625 12.5928125 -1.735625 12.5928125 -3.1875 12.6875 C-7.20509324 8.42641626 -7.20509324 8.42641626 -7.125 5.0625 C-5.48842155 0.91650125 -4.65474566 -0.45634761 0 0 Z " fill="#DFE0E2" transform="translate(219.1875,835.3125)"/>
<path d="M0 0 C1.3921875 0.3403125 1.3921875 0.3403125 2.8125 0.6875 C4.16931803 3.92878751 4.93476153 5.99977887 4.3125 9.5 C2.8125 11.6875 2.8125 11.6875 -0.3125 12.5 C-1.735625 12.5928125 -1.735625 12.5928125 -3.1875 12.6875 C-7.20509324 8.42641626 -7.20509324 8.42641626 -7.125 5.0625 C-5.48842155 0.91650125 -4.65474566 -0.45634761 0 0 Z " fill="#D3D4D7" transform="translate(86.1875,835.3125)"/>
<path d="M0 0 C1.20272819 2.40545638 1.10071472 3.94996953 1.0625 6.625 C1.05347656 7.44226563 1.04445312 8.25953125 1.03515625 9.1015625 C1.02355469 9.72804688 1.01195312 10.35453125 1 11 C0.01 11 -0.98 11 -2 11 C-2 8.03 -2 5.06 -2 2 C-2.99 2.33 -3.98 2.66 -5 3 C-5.33 5.64 -5.66 8.28 -6 11 C-6.99 11 -7.98 11 -9 11 C-9 7.37 -9 3.74 -9 0 C-5.17943822 -0.95514044 -3.64458987 -1.08352672 0 0 Z " fill="#D7D8DA" transform="translate(202,836)"/>
<path d="M0 0 C1.20272819 2.40545638 1.10071472 3.94996953 1.0625 6.625 C1.05347656 7.44226563 1.04445313 8.25953125 1.03515625 9.1015625 C1.02355469 9.72804688 1.01195313 10.35453125 1 11 C0.01 11 -0.98 11 -2 11 C-2 8.03 -2 5.06 -2 2 C-2.99 2.33 -3.98 2.66 -5 3 C-5.33 5.64 -5.66 8.28 -6 11 C-6.99 11 -7.98 11 -9 11 C-9 7.37 -9 3.74 -9 0 C-5.17943822 -0.95514044 -3.64458987 -1.08352672 0 0 Z " fill="#D7D8DA" transform="translate(101,836)"/>
<path d="M0 0 C1.20272819 2.40545638 1.10071472 3.94996953 1.0625 6.625 C1.05347656 7.44226563 1.04445312 8.25953125 1.03515625 9.1015625 C1.02355469 9.72804688 1.01195312 10.35453125 1 11 C0.01 11 -0.98 11 -2 11 C-2 8.03 -2 5.06 -2 2 C-2.99 2.33 -3.98 2.66 -5 3 C-5.33 5.64 -5.66 8.28 -6 11 C-6.99 11 -7.98 11 -9 11 C-9 7.37 -9 3.74 -9 0 C-5.17943822 -0.95514044 -3.64458987 -1.08352672 0 0 Z " fill="#D7D8DA" transform="translate(234,836)"/>
<path d="M0 0 C0.22134176 2.12368444 0.42670007 4.24904024 0.625 6.375 C0.74101563 7.55835938 0.85703125 8.74171875 0.9765625 9.9609375 C0.98429687 10.96382812 0.99203125 11.96671875 1 13 C-1 15 -1 15 -4 15.3125 C-4.99 15.209375 -5.98 15.10625 -7 15 C-7.66 14.01 -8.32 13.02 -9 12 C-7 12 -5 12 -3 12 C-3 10.68 -3 9.36 -3 8 C-4.32 7.67 -5.64 7.34 -7 7 C-7 5.35 -7 3.7 -7 2 C-1.125 0 -1.125 0 0 0 Z " fill="#D7D7DA" transform="translate(77,837)"/>
<path d="M0 0 C0.66 0 1.32 0 2 0 C2 0.99 2 1.98 2 3 C2.66 3 3.32 3 4 3 C4 3.99 4 4.98 4 6 C3.34 6 2.68 6 2 6 C2 8.31 2 10.62 2 13 C2.99 13 3.98 13 5 13 C4.67 13.99 4.34 14.98 4 16 C0.125 15.125 0.125 15.125 -1 14 C-1.14115161 11.32941149 -1.04247107 8.67567762 -1 6 C-1.66 6 -2.32 6 -3 6 C-3 5.34 -3 4.68 -3 4 C-2.34 4 -1.68 4 -1 4 C-0.67 2.68 -0.34 1.36 0 0 Z " fill="#D5D6D8" transform="translate(239,832)"/>
<path d="M0 0 C0.66 0 1.32 0 2 0 C2 0.99 2 1.98 2 3 C2.66 3 3.32 3 4 3 C4 3.99 4 4.98 4 6 C3.34 6 2.68 6 2 6 C2 8.31 2 10.62 2 13 C2.99 13 3.98 13 5 13 C4.67 13.99 4.34 14.98 4 16 C0.125 15.125 0.125 15.125 -1 14 C-1.14115161 11.32941149 -1.04247107 8.67567762 -1 6 C-1.66 6 -2.32 6 -3 6 C-3 5.34 -3 4.68 -3 4 C-2.34 4 -1.68 4 -1 4 C-0.67 2.68 -0.34 1.36 0 0 Z " fill="#D4D5D7" transform="translate(207,832)"/>
<path d="M0 0 C0.66 0 1.32 0 2 0 C2 0.99 2 1.98 2 3 C2.66 3 3.32 3 4 3 C4 3.99 4 4.98 4 6 C3.34 6 2.68 6 2 6 C2 8.31 2 10.62 2 13 C2.99 13 3.98 13 5 13 C4.67 13.99 4.34 14.98 4 16 C0.125 15.125 0.125 15.125 -1 14 C-1.14115161 11.32941149 -1.04247107 8.67567762 -1 6 C-1.66 6 -2.32 6 -3 6 C-3 5.34 -3 4.68 -3 4 C-2.34 4 -1.68 4 -1 4 C-0.67 2.68 -0.34 1.36 0 0 Z " fill="#D4D5D7" transform="translate(136,832)"/>
<path d="M0 0 C0.99 0.33 1.98 0.66 3 1 C3.94921875 3.28515625 3.94921875 3.28515625 4.6875 6.0625 C5.06455078 7.44115234 5.06455078 7.44115234 5.44921875 8.84765625 C5.63097656 9.55792969 5.81273437 10.26820313 6 11 C3.66666667 11 1.33333333 11 -1 11 C-2.1875 9.4375 -2.1875 9.4375 -3 7 C-1.625 3.25 -1.625 3.25 0 0 Z " fill="#DDDEE1" transform="translate(45,830)"/>
<path d="M0 0 C1.1446875 0.3403125 1.1446875 0.3403125 2.3125 0.6875 C2.6425 1.6775 2.9725 2.6675 3.3125 3.6875 C1.3325 3.6875 -0.6475 3.6875 -2.6875 3.6875 C-2.6875 5.3375 -2.6875 6.9875 -2.6875 8.6875 C-0.7075 8.6875 1.2725 8.6875 3.3125 8.6875 C2.3125 11.6875 2.3125 11.6875 0.5625 12.6875 C-1.6875 12.6875 -1.6875 12.6875 -4.5 10.5625 C-6.6875 7.6875 -6.6875 7.6875 -6.6875 5.0625 C-5.11971539 1.33901156 -4.2773326 -0.49736426 0 0 Z " fill="#D6D6D9" transform="translate(176.6875,835.3125)"/>
<path d="M0 0 C2.64 0 5.28 0 8 0 C7.67 1.65 7.34 3.3 7 5 C5.02 5.33 3.04 5.66 1 6 C-0.0625 4.125 -0.0625 4.125 -1 2 C-0.67 1.34 -0.34 0.68 0 0 Z " fill="#DFE0E2" transform="translate(82,842)"/>
<path d="M0 0 C0.66 1.98 1.32 3.96 2 6 C-0.97 6 -3.94 6 -7 6 C-4 4 -4 4 -2 3 C-3.98 3 -5.96 3 -8 3 C-8 2.01 -8 1.02 -8 0 C-5.13822943 -1.43088528 -3.06624227 -0.59991697 0 0 Z " fill="#D8D9DB" transform="translate(222,836)"/>
<path d="M0 0 C0 0.99 0 1.98 0 3 C-1 4 -1 4 -4.0625 4.0625 C-5.031875 4.041875 -6.00125 4.02125 -7 4 C-7.33 2.68 -7.66 1.36 -8 0 C-5.13822943 -1.43088528 -3.06624227 -0.59991697 0 0 Z " fill="#DFE0E3" transform="translate(113,836)"/>
<path d="M0 0 C1.32 0 2.64 0 4 0 C5.125 4.75 5.125 4.75 4 7 C2.68 7 1.36 7 0 7 C-1.125 2.25 -1.125 2.25 0 0 Z " fill="#F3F4F6" transform="translate(184,838)"/>
<path d="M0 0 C1.32 0 2.64 0 4 0 C4 1.98 4 3.96 4 6 C2.0625 6.5625 2.0625 6.5625 0 7 C-1 6 -1 6 -1.125 3.5 C-1 1 -1 1 0 0 Z " fill="#F3F4F6" transform="translate(157,838)"/>
<path d="M0 0 C2.97 0.495 2.97 0.495 6 1 C6.66 2.98 7.32 4.96 8 7 C3.545 6.01 3.545 6.01 -1 5 C-0.67 3.35 -0.34 1.7 0 0 Z " fill="#E1E1E4" transform="translate(83,835)"/>
<path d="M0 0 C-1.11306636 2.50439931 -2.16216791 4.17199627 -4.0625 6.1875 C-6.6917506 10.00415409 -6.80199777 13.45584877 -7 18 C-7.33 18 -7.66 18 -8 18 C-8.91290984 8.65112705 -8.91290984 8.65112705 -6.734375 4.7109375 C-2.74074074 0 -2.74074074 0 0 0 Z " fill="#C6C8CA" transform="translate(516,503)"/>
<path d="M0 0 C1.09731445 0.00676758 1.09731445 0.00676758 2.21679688 0.01367188 C3.99873419 0.02531852 5.78062863 0.04324809 7.5625 0.0625 C7.5625 0.3925 7.5625 0.7225 7.5625 1.0625 C1.6225 1.5575 1.6225 1.5575 -4.4375 2.0625 C-4.4375 2.3925 -4.4375 2.7225 -4.4375 3.0625 C-8.0675 2.7325 -11.6975 2.4025 -15.4375 2.0625 C-15.4375 1.7325 -15.4375 1.4025 -15.4375 1.0625 C-10.23576905 0.19440561 -5.26771184 -0.06265348 0 0 Z " fill="#535860" transform="translate(536.4375,418.9375)"/>
<path d="M0 0 C1.32 0 2.64 0 4 0 C4 1.98 4 3.96 4 6 C3.01 6.33 2.02 6.66 1 7 C0.34 6.67 -0.32 6.34 -1 6 C-1.042721 4.33388095 -1.04063832 2.66617115 -1 1 C-0.67 0.67 -0.34 0.34 0 0 Z " fill="#F2F3F4" transform="translate(71,838)"/>
<path d="M0 0 C0 0.33 0 0.66 0 1 C-2.64 1.33 -5.28 1.66 -8 2 C-8 2.33 -8 2.66 -8 3 C-12.29 2.67 -16.58 2.34 -21 2 C-21 1.67 -21 1.34 -21 1 C-13.96094956 0.06145994 -7.09727428 -0.10808032 0 0 Z " fill="#484D55" transform="translate(548,476)"/>
<path d="M0 0 C0.33 0.66 0.66 1.32 1 2 C1.99 2.66 2.98 3.32 4 4 C3.67 5.32 3.34 6.64 3 8 C1.125 7.75 1.125 7.75 -1 7 C-2.25 4.9375 -2.25 4.9375 -3 3 C-2.01 2.01 -1.02 1.02 0 0 Z " fill="#DFE0E2" transform="translate(125,840)"/>
<path d="M0 0 C2 2 2 2 2.125 5.625 C2.08375 6.73875 2.0425 7.8525 2 9 C2.99 9 3.98 9 5 9 C4.67 9.99 4.34 10.98 4 12 C2.68 11.67 1.36 11.34 0 11 C0 7.37 0 3.74 0 0 Z " fill="#DBDBDE" transform="translate(207,836)"/>
<path d="M0 0 C2 2 2 2 2.125 5.625 C2.08375 6.73875 2.0425 7.8525 2 9 C2.99 9 3.98 9 5 9 C4.67 9.99 4.34 10.98 4 12 C2.68 11.67 1.36 11.34 0 11 C0 7.37 0 3.74 0 0 Z " fill="#DBDCDE" transform="translate(136,836)"/>
<path d="M0 0 C0.66 0 1.32 0 2 0 C2 5.28 2 10.56 2 16 C-0.31 15.67 -2.62 15.34 -5 15 C-1.125 12 -1.125 12 0 12 C0 8.04 0 4.08 0 0 Z " fill="#D1D2D5" transform="translate(162,831)"/>
<path d="M0 0 C-0.99 0.33 -1.98 0.66 -3 1 C-3 1.66 -3 2.32 -3 3 C-4.74784829 3.36463732 -6.49840502 3.7163078 -8.25 4.0625 C-9.71179688 4.35833984 -9.71179688 4.35833984 -11.203125 4.66015625 C-13.868119 4.98397535 -15.48871723 4.85503199 -18 4 C-15.94037148 3.32451422 -13.87715678 2.65995688 -11.8125 2 C-10.66394531 1.62875 -9.51539063 1.2575 -8.33203125 0.875 C-5.35679188 0.09369447 -3.04716104 -0.18363306 0 0 Z " fill="#474C53" transform="translate(518,479)"/>
<path d="M0 0 C0 3.77910478 -0.99703962 4.46106101 -3.5 7.1875 C-4.1496875 7.90292969 -4.799375 8.61835938 -5.46875 9.35546875 C-5.9740625 9.89816406 -6.479375 10.44085938 -7 11 C-7.99 10.67 -8.98 10.34 -10 10 C-6.7 6.7 -3.4 3.4 0 0 Z " fill="#DBDEE1" transform="translate(339,424)"/>
<path d="M0 0 C0.99 0.495 0.99 0.495 2 1 C6.14503661 1.24787017 6.14503661 1.24787017 10 0 C10.33 1.32 10.66 2.64 11 4 C7.7 4.33 4.4 4.66 1 5 C0.67 3.35 0.34 1.7 0 0 Z " fill="#D1D2D5" transform="translate(104,838)"/>
<path d="M0 0 C0.66 0.33 1.32 0.66 2 1 C0.88200014 2.33920838 -0.24461897 3.67122556 -1.375 5 C-2.00148438 5.7425 -2.62796875 6.485 -3.2734375 7.25 C-4.12808594 8.11625 -4.12808594 8.11625 -5 9 C-5.66 9 -6.32 9 -7 9 C-7 9.66 -7 10.32 -7 11 C-7.66 11 -8.32 11 -9 11 C-7.59155282 7.78475695 -5.89655214 5.67816132 -3.375 3.25 C-2.74335938 2.63640625 -2.11171875 2.0228125 -1.4609375 1.390625 C-0.73777344 0.70226562 -0.73777344 0.70226562 0 0 Z " fill="#394048" transform="translate(499,429)"/>
<path d="M0 0 C0.66 0 1.32 0 2 0 C2 0.99 2 1.98 2 3 C3.98 3 5.96 3 8 3 C8 3.33 8 3.66 8 4 C7.030625 4.12375 6.06125 4.2475 5.0625 4.375 C3.5465625 4.684375 3.5465625 4.684375 2 5 C1.67 5.66 1.34 6.32 1 7 C0.01 7 -0.98 7 -2 7 C-1.34 4.69 -0.68 2.38 0 0 Z " fill="#D9DADD" transform="translate(41,840)"/>
<path d="M0 0 C-0.33 0.99 -0.66 1.98 -1 3 C-2.98 3.33 -4.96 3.66 -7 4 C-7.33 3.01 -7.66 2.02 -8 1 C-2.25 -1.125 -2.25 -1.125 0 0 Z " fill="#D8D8DB" transform="translate(114,844)"/>
<path d="M0 0 C0.33 0 0.66 0 1 0 C1 2.31 1 4.62 1 7 C1.99 7 2.98 7 4 7 C3.67 7.99 3.34 8.98 3 10 C1.68 9.67 0.36 9.34 -1 9 C-0.67 6.03 -0.34 3.06 0 0 Z " fill="#DBDCDF" transform="translate(240,838)"/>
<path d="M0 0 C0.33 0.66 0.66 1.32 1 2 C-0.65 3.98 -2.3 5.96 -4 8 C-4.99 7.67 -5.98 7.34 -7 7 C-4.69 4.69 -2.38 2.38 0 0 Z " fill="#D8DBDE" transform="translate(328,435)"/>
<path d="M0 0 C0.66 1.32 1.32 2.64 2 4 C-0.97 4 -3.94 4 -7 4 C-4.68143083 2.45428722 -2.49361571 1.20381448 0 0 Z " fill="#D1D1D5" transform="translate(222,838)"/>
<path d="M0 0 C0.66 0.33 1.32 0.66 2 1 C1.0479279 2.00596297 0.08812654 3.00461563 -0.875 4 C-1.40867187 4.556875 -1.94234375 5.11375 -2.4921875 5.6875 C-4 7 -4 7 -6 7 C-4.60667426 3.63279613 -3.0210714 2.0140476 0 0 Z " fill="#BBBDC0" transform="translate(521,448)"/>
<path d="M0 0 C0.66 0 1.32 0 2 0 C0.60667426 3.36720387 -0.9789286 4.9859524 -4 7 C-4 6.01 -4 5.02 -4 4 C-2.68 3.34 -1.36 2.68 0 2 C0 1.34 0 0.68 0 0 Z " fill="#333A42" transform="translate(256,392)"/>
</svg>
